<?xml version="1.0" encoding="UTF-8"?>
<svg id="Layer_1" data-name="Layer 1" xmlns="http://www.w3.org/2000/svg" viewBox="0 0 732.83 435.15">
  <defs>
    <style>
      .cls-1 {
        fill: #0d0d0c;
        stroke-width: 1.12px;
      }

      .cls-1, .cls-2, .cls-3, .cls-4, .cls-5, .cls-6, .cls-7, .cls-8, .cls-9, .cls-10, .cls-11, .cls-12, .cls-13, .cls-14 {
        stroke-miterlimit: 10;
      }

      .cls-1, .cls-2, .cls-8 {
        stroke: #ebec9a;
      }

      .cls-15 {
        font-size: 13px;
      }

      .cls-15, .cls-16 {
        fill: #221f20;
        font-family: ArialRoundedMTBold, 'Arial Rounded MT Bold';
      }

      .cls-17, .cls-14 {
        fill: #f9f9f9;
      }

      .cls-18 {
        letter-spacing: .01em;
      }

      .cls-2 {
        stroke-width: .66px;
      }

      .cls-2, .cls-8 {
        fill: #fff;
      }

      .cls-3, .cls-4, .cls-5, .cls-6, .cls-7, .cls-14 {
        stroke: #221f20;
      }

      .cls-3, .cls-10 {
        fill: #f0b372;
      }

      .cls-4, .cls-9 {
        fill: #fffb64;
      }

      .cls-5, .cls-13 {
        fill: #da3460;
      }

      .cls-6, .cls-11 {
        fill: #8acde4;
      }

      .cls-7, .cls-12 {
        fill: #88bf56;
      }

      .cls-19 {
        letter-spacing: -.01em;
      }

      .cls-8 {
        stroke-width: .67px;
      }

      .cls-9, .cls-10, .cls-11, .cls-12, .cls-13 {
        stroke: #0d0d0c;
        stroke-width: .83px;
      }

      .cls-20 {
        letter-spacing: -.02em;
      }

      .cls-16 {
        font-size: 24px;
      }

      .cls-14 {
        stroke-width: .71px;
      }
    </style>
  </defs>
  <ellipse class="cls-17" cx="633.3" cy="336.69" rx="2.33" ry="30.6"/>
  <ellipse class="cls-17" cx="631.98" cy="172.35" rx="5.4" ry="30.27"/>
  <rect class="cls-6" x=".5" y="134.08" width="116.51" height="298.87" rx="12" ry="12"/>
  <rect class="cls-14" x=".56" y="240.51" width="115.98" height="36.43"/>
  <text class="cls-16" transform="translate(20.41 268.24)"><tspan x="0" y="0">Orbitz</tspan></text>
  <text class="cls-15" transform="translate(4.7 304.84)"><tspan class="cls-18" x="0" y="0">f</tspan><tspan x="4.49" y="0">iller bottle im</tspan><tspan class="cls-19" x="86.43" y="0">a</tspan><tspan class="cls-20" x="93.98" y="0">g</tspan><tspan x="101.78" y="0">e</tspan></text>
  <rect class="cls-11" x="25.49" y="6.56" width="61.01" height="127.37"/>
  <ellipse class="cls-1" cx="55.99" cy="6.78" rx="30.5" ry="4.75"/>
  <ellipse class="cls-17" cx="32.37" cy="60.71" rx="2.8" ry="31.75"/>
  <ellipse class="cls-17" cx="32.37" cy="120.46" rx="2.33" ry="11.2"/>
  <ellipse class="cls-2" cx="4.54" cy="365.51" rx="2.05" ry="58.4"/>
  <ellipse class="cls-8" cx="9.03" cy="190.49" rx="2.53" ry="48.94"/>
  <ellipse class="cls-17" cx="106.81" cy="346.49" rx="2.33" ry="30.6"/>
  <ellipse class="cls-17" cx="105.49" cy="182.15" rx="5.4" ry="30.27"/>
  <g>
    <rect class="cls-4" x="150.67" y="135.78" width="116.51" height="298.87" rx="12" ry="12"/>
    <rect class="cls-14" x="150.72" y="242.2" width="115.98" height="36.43"/>
    <text class="cls-16" transform="translate(170.58 269.93)"><tspan x="0" y="0">Orbitz</tspan></text>
    <text class="cls-15" transform="translate(154.87 306.53)"><tspan class="cls-18" x="0" y="0">f</tspan><tspan x="4.49" y="0">iller bottle im</tspan><tspan class="cls-19" x="86.43" y="0">a</tspan><tspan class="cls-20" x="93.98" y="0">g</tspan><tspan x="101.78" y="0">e</tspan></text>
    <rect class="cls-9" x="175.66" y="8.26" width="61.01" height="127.37"/>
    <ellipse class="cls-1" cx="206.16" cy="8.48" rx="30.5" ry="4.75"/>
    <ellipse class="cls-17" cx="182.54" cy="62.4" rx="2.8" ry="31.75"/>
    <ellipse class="cls-17" cx="182.54" cy="122.16" rx="2.33" ry="11.2"/>
    <ellipse class="cls-2" cx="154.71" cy="367.2" rx="2.05" ry="58.4"/>
    <ellipse class="cls-8" cx="159.2" cy="192.19" rx="2.53" ry="48.94"/>
    <ellipse class="cls-17" cx="256.98" cy="348.19" rx="2.33" ry="30.6"/>
    <ellipse class="cls-17" cx="255.66" cy="183.85" rx="5.4" ry="30.27"/>
  </g>
  <g>
    <rect class="cls-5" x="463.2" y="133.87" width="116.51" height="298.87" rx="12" ry="12"/>
    <rect class="cls-14" x="463.26" y="240.3" width="115.98" height="36.43"/>
    <text class="cls-16" transform="translate(483.11 268.03)"><tspan x="0" y="0">Orbitz</tspan></text>
    <text class="cls-15" transform="translate(467.4 304.63)"><tspan class="cls-18" x="0" y="0">f</tspan><tspan x="4.49" y="0">iller bottle im</tspan><tspan class="cls-19" x="86.43" y="0">a</tspan><tspan class="cls-20" x="93.98" y="0">g</tspan><tspan x="101.78" y="0">e</tspan></text>
    <rect class="cls-13" x="488.19" y="6.35" width="61.01" height="127.37"/>
    <ellipse class="cls-1" cx="518.69" cy="6.57" rx="30.5" ry="4.75"/>
    <ellipse class="cls-17" cx="495.07" cy="60.5" rx="2.8" ry="31.75"/>
    <ellipse class="cls-17" cx="495.07" cy="120.25" rx="2.33" ry="11.2"/>
    <ellipse class="cls-2" cx="467.24" cy="365.3" rx="2.05" ry="58.4"/>
    <ellipse class="cls-8" cx="471.73" cy="190.28" rx="2.53" ry="48.94"/>
    <ellipse class="cls-17" cx="569.51" cy="346.28" rx="2.33" ry="30.6"/>
    <ellipse class="cls-17" cx="568.19" cy="181.95" rx="5.4" ry="30.27"/>
  </g>
  <g>
    <rect class="cls-7" x="305.56" y="133.06" width="116.51" height="298.87" rx="12" ry="12"/>
    <rect class="cls-14" x="305.62" y="239.49" width="115.98" height="36.43"/>
    <text class="cls-16" transform="translate(325.48 267.22)"><tspan x="0" y="0">Orbitz</tspan></text>
    <text class="cls-15" transform="translate(309.76 303.82)"><tspan class="cls-18" x="0" y="0">f</tspan><tspan x="4.49" y="0">iller bottle im</tspan><tspan class="cls-19" x="86.43" y="0">a</tspan><tspan class="cls-20" x="93.98" y="0">g</tspan><tspan x="101.78" y="0">e</tspan></text>
    <rect class="cls-12" x="330.56" y="5.54" width="61.01" height="127.37"/>
    <ellipse class="cls-1" cx="361.06" cy="5.76" rx="30.5" ry="4.75"/>
    <ellipse class="cls-17" cx="337.44" cy="59.69" rx="2.8" ry="31.75"/>
    <ellipse class="cls-17" cx="337.44" cy="119.44" rx="2.33" ry="11.2"/>
    <ellipse class="cls-2" cx="309.61" cy="364.49" rx="2.05" ry="58.4"/>
    <ellipse class="cls-8" cx="314.09" cy="189.47" rx="2.53" ry="48.94"/>
    <ellipse class="cls-17" cx="411.88" cy="345.47" rx="2.33" ry="30.6"/>
    <ellipse class="cls-17" cx="410.56" cy="181.14" rx="5.4" ry="30.27"/>
  </g>
  <g>
    <rect class="cls-3" x="615.82" y="132.61" width="116.51" height="298.87" rx="12" ry="12"/>
    <rect class="cls-14" x="615.88" y="239.04" width="115.98" height="36.43"/>
    <text class="cls-16" transform="translate(635.74 266.77)"><tspan x="0" y="0">Orbitz</tspan></text>
    <text class="cls-15" transform="translate(620.02 303.37)"><tspan class="cls-18" x="0" y="0">f</tspan><tspan x="4.49" y="0">iller bottle im</tspan><tspan class="cls-19" x="86.43" y="0">a</tspan><tspan class="cls-20" x="93.98" y="0">g</tspan><tspan x="101.78" y="0">e</tspan></text>
    <rect class="cls-10" x="640.81" y="5.09" width="61.01" height="127.37"/>
    <ellipse class="cls-1" cx="671.32" cy="5.31" rx="30.5" ry="4.75"/>
    <ellipse class="cls-17" cx="647.69" cy="59.24" rx="2.8" ry="31.75"/>
    <ellipse class="cls-17" cx="647.69" cy="118.99" rx="2.33" ry="11.2"/>
    <ellipse class="cls-2" cx="619.86" cy="364.04" rx="2.05" ry="58.4"/>
    <ellipse class="cls-8" cx="624.35" cy="189.02" rx="2.53" ry="48.94"/>
    <ellipse class="cls-17" cx="722.13" cy="345.02" rx="2.33" ry="30.6"/>
    <ellipse class="cls-17" cx="720.81" cy="180.68" rx="5.4" ry="30.27"/>
  </g>
</svg>