<?xml version="1.0" encoding="utf-8"?>
<!-- Generator: Adobe Illustrator 26.5.0, SVG Export Plug-In . SVG Version: 6.00 Build 0)  -->
<svg version="1.1" id="Layer_1" xmlns="http://www.w3.org/2000/svg" xmlns:xlink="http://www.w3.org/1999/xlink" x="0px" y="0px"
	 viewBox="0 0 792 612" style="enable-background:new 0 0 792 612;" xml:space="preserve">
<style type="text/css">
	.st0{fill:#78C143;}
	.st1{fill:#42C4F2;}
	.st2{fill:#EE1F4D;}
	.st3{fill:#9D90C5;}
	.st4{fill:#F7C73C;}
	.st5{fill:#F5EC4B;}
	.st6{fill:#6858A6;}
	.st7{fill:#F47A3D;}
	.st8{fill:none;}
	.st9{font-family:'ArialRoundedMTBold';}
	.st10{font-size:248.9926px;}
	.st11{font-size:187.2125px;}
	.st12{font-size:190.9568px;}
	.st13{fill:none;stroke:#000000;stroke-width:1.6715;stroke-miterlimit:10;}
	.st14{fill:#B7B6B6;}
	.st15{fill:none;stroke:#AEADAD;stroke-width:1.6715;stroke-miterlimit:10;}
	.st16{font-size:200.3174px;}
	.st17{fill:none;stroke:#000000;stroke-width:6.7064;stroke-miterlimit:10;}
</style>
<g>
	<g>
		
			<ellipse transform="matrix(0.1602 -0.9871 0.9871 0.1602 -102.4125 332.0821)" class="st0" cx="144" cy="226.2" rx="8.5" ry="8.5"/>
		<circle class="st1" cx="162.3" cy="226.9" r="8.5"/>
		<circle class="st2" cx="217.2" cy="270.5" r="8.5"/>
		<circle class="st3" cx="81.1" cy="283.7" r="8.5"/>
		<circle class="st4" cx="96.3" cy="250.8" r="8.5"/>
		<circle class="st1" cx="81.4" cy="301.9" r="8.5"/>
		<circle class="st5" cx="85.4" cy="265.8" r="8.5"/>
		<circle class="st0" cx="87.1" cy="319" r="8.5"/>
		<circle class="st6" cx="125.9" cy="229.1" r="8.5"/>
		<circle class="st4" cx="208.3" cy="254.6" r="8.5"/>
		<circle class="st5" cx="195.1" cy="241.8" r="8.5"/>
		<circle class="st3" cx="179.9" cy="231.9" r="8.5"/>
		<circle class="st2" cx="109.7" cy="237.8" r="8.5"/>
		<circle class="st6" cx="98.2" cy="333.5" r="8.5"/>
		<circle class="st1" cx="197.6" cy="337.2" r="8.5"/>
		<circle class="st0" cx="209.6" cy="323.7" r="8.5"/>
		<circle class="st2" cx="128.9" cy="352.1" r="8.5"/>
		<circle class="st3" cx="182.1" cy="347.2" r="8.5"/>
		<circle class="st7" cx="112.5" cy="344.7" r="8.5"/>
		<circle class="st5" cx="164.8" cy="352.9" r="8.5"/>
		<circle class="st4" cx="146.8" cy="355.3" r="8.5"/>
		<circle class="st6" cx="217.5" cy="307" r="8.5"/>
		<circle class="st7" cx="219.7" cy="288.6" r="8.5"/>
	</g>
	<rect x="228.5" y="222.2" class="st8" width="98.1" height="147.6"/>
	<text transform="matrix(0.8779 0 0 1 228.5428 358.4301)" class="st9 st10">r</text>
	<rect x="446.7" y="223.6" class="st8" width="96.9" height="149.3"/>
	<text transform="matrix(1 0 0 1 446.6497 359.8363)" class="st9 st11">i</text>
	<rect x="328.8" y="223.4" class="st8" width="125.7" height="150.8"/>
	<text transform="matrix(1.0196 0 0 1 328.8421 359.6313)" class="st9 st12">b</text>
	<line class="st13" x1="258.6" y1="283.1" x2="258.6" y2="282.6"/>
	<path class="st14" d="M318.6,237.6c1,0.2-7.7-6.9-18.9-6.9c-11.2,0-20.1,9.5-20.6,10.4s9-6.9,20.2-6.9S316.6,237.3,318.6,237.6z"/>
	<path class="st15" d="M461.9,237.4c0-6,4.5-11,10.5-11c6,0,10.9,4.8,10.9,10.9"/>
	<g>
		<rect x="589.6" y="225.1" class="st8" width="122.5" height="157.5"/>
		<text transform="matrix(1 0 0 1 589.5667 361.3207)" class="st9 st11">z</text>
		<ellipse class="st14" cx="635.4" cy="268" rx="34.4" ry="1.3"/>
		<ellipse class="st14" cx="655.3" cy="359.9" rx="22.4" ry="0.7"/>
	</g>
	<path class="st14" d="M415.7,268.9c1,0.2-7.7-6.9-18.9-6.9c-11.2,0-20.1,9.5-20.6,10.4c-0.5,0.8,9-6.9,20.2-6.9
		C407.9,265.5,413.7,268.5,415.7,268.9z"/>
	<g>
		<rect x="502.3" y="222.2" class="st8" width="122.5" height="150.8"/>
		<text transform="matrix(0.9346 0 0 1 502.2542 358.4301)" class="st9 st16">t</text>
		<path class="st15" d="M521.6,229.6c0-6,4.5-11,10.5-11c6,0,10.9,4.8,10.9,10.9"/>
		<path class="st14" d="M531.2,354.6c-1-0.2,7.7,6.7,18.9,6.5c11.2-0.2,19.9-9.9,20.4-10.9c0.5-1-9,7-20.2,7.4
			C539.3,357.6,533.3,354.9,531.2,354.6z"/>
	</g>
</g>
<ellipse class="st17" cx="384.1" cy="293.6" rx="360.2" ry="161.6"/>
</svg>
