<?xml version="1.0" encoding="UTF-8"?>
<svg id="Layer_1" data-name="Layer 1" xmlns="http://www.w3.org/2000/svg" viewBox="0 0 727.1 329.9">
  <defs>
    <style>
      .cls-1, .cls-2, .cls-3, .cls-4 {
        fill: none;
      }

      .cls-5 {
        font-size: 248.99px;
      }

      .cls-5, .cls-6, .cls-7, .cls-8 {
        font-family: ArialRoundedMTBold, 'Arial Rounded MT Bold';
        isolation: isolate;
      }

      .cls-2 {
        stroke: #aeadad;
      }

      .cls-2, .cls-3 {
        stroke-width: 1.67px;
      }

      .cls-2, .cls-3, .cls-4 {
        stroke-miterlimit: 10;
      }

      .cls-3, .cls-4 {
        stroke: #000;
      }

      .cls-9 {
        fill: #f47a3d;
      }

      .cls-10 {
        fill: #f7c73c;
      }

      .cls-11 {
        fill: #ee1f4d;
      }

      .cls-12 {
        fill: #f5ec4b;
      }

      .cls-13 {
        fill: #6858a6;
      }

      .cls-14 {
        fill: #b7b6b6;
      }

      .cls-15 {
        fill: #9d90c5;
      }

      .cls-16 {
        fill: #42c4f2;
      }

      .cls-17 {
        fill: #78c143;
      }

      .cls-6 {
        font-size: 187.21px;
      }

      .cls-7 {
        font-size: 200.32px;
      }

      .cls-8 {
        font-size: 190.96px;
      }

      .cls-4 {
        stroke-width: 6.71px;
      }
    </style>
  </defs>
  <g>
    <g>
      <circle class="cls-17" cx="123.4" cy="97.61" r="8.52" transform="translate(7.28 203.78) rotate(-80.78)"/>
      <circle class="cls-16" cx="141.79" cy="98.28" r="8.52"/>
      <circle class="cls-11" cx="196.61" cy="141.91" r="8.52"/>
      <circle class="cls-15" cx="60.55" cy="155.11" r="8.52"/>
      <circle class="cls-10" cx="75.76" cy="122.18" r="8.52"/>
      <circle class="cls-16" cx="60.88" cy="173.33" r="8.52"/>
      <circle class="cls-12" cx="64.9" cy="137.23" r="8.52"/>
      <circle class="cls-17" cx="66.57" cy="190.38" r="8.52"/>
      <circle class="cls-13" cx="105.35" cy="100.45" r="8.52"/>
      <circle class="cls-10" cx="187.75" cy="126.03" r="8.52"/>
      <circle class="cls-12" cx="174.55" cy="113.16" r="8.52"/>
      <circle class="cls-15" cx="159.34" cy="103.29" r="8.52"/>
      <circle class="cls-11" cx="89.13" cy="109.14" r="8.52"/>
      <circle class="cls-13" cx="77.6" cy="204.92" r="8.52"/>
      <circle class="cls-16" cx="177.06" cy="208.6" r="8.52"/>
      <circle class="cls-17" cx="189.09" cy="195.06" r="8.52"/>
      <circle class="cls-11" cx="108.36" cy="223.48" r="8.52"/>
      <circle class="cls-15" cx="161.51" cy="218.63" r="8.52"/>
      <circle class="cls-9" cx="91.97" cy="216.12" r="8.52"/>
      <circle class="cls-12" cx="144.29" cy="224.31" r="8.52"/>
      <circle class="cls-10" cx="126.24" cy="226.65" r="8.52"/>
      <circle class="cls-13" cx="196.95" cy="178.35" r="8.52"/>
      <circle class="cls-9" cx="199.12" cy="159.96" r="8.52"/>
    </g>
    <rect class="cls-1" x="207.98" y="93.6" width="98.12" height="147.6"/>
    <text class="cls-5" transform="translate(207.99 229.81) scale(.88 1)"><tspan x="0" y="0">r</tspan></text>
    <rect class="cls-1" x="426.12" y="94.94" width="96.95" height="149.27"/>
    <text class="cls-6" transform="translate(426.1 231.22)"><tspan x="0" y="0">i</tspan></text>
    <rect class="cls-1" x="308.27" y="94.77" width="125.7" height="150.77"/>
    <text class="cls-8" transform="translate(308.29 231.01) scale(1.02 1)"><tspan x="0" y="0">b</tspan></text>
    <line class="cls-3" x1="238.07" y1="154.44" x2="238.07" y2="153.94"/>
    <path class="cls-14" d="M298.08,108.98c1,.17-7.69-6.85-18.89-6.85s-20.06,9.53-20.56,10.36,9.03-6.85,20.23-6.85,17.22,3.01,19.22,3.34Z"/>
    <path class="cls-2" d="M441.33,108.81c0-6.02,4.51-11.03,10.53-11.03s10.87,4.85,10.87,10.87"/>
    <g>
      <rect class="cls-1" x="569.03" y="96.44" width="122.52" height="157.46"/>
      <text class="cls-6" transform="translate(569.01 232.7)"><tspan x="0" y="0">z</tspan></text>
      <ellipse class="cls-14" cx="614.83" cy="139.4" rx="34.43" ry="1.34"/>
      <ellipse class="cls-14" cx="634.72" cy="231.33" rx="22.4" ry=".67"/>
    </g>
    <path class="cls-14" d="M395.19,140.23c1,.17-7.69-6.85-18.89-6.85s-20.06,9.53-20.56,10.36,9.03-6.85,20.23-6.85,17.22,3.01,19.22,3.34Z"/>
    <g>
      <rect class="cls-1" x="481.78" y="93.6" width="122.52" height="150.77"/>
      <text class="cls-7" transform="translate(481.7 229.81) scale(.93 1)"><tspan x="0" y="0">t</tspan></text>
      <path class="cls-2" d="M501,100.95c0-6.02,4.51-11.03,10.53-11.03s10.87,4.85,10.87,10.87"/>
      <path class="cls-14" d="M510.7,225.98c-1-.17,7.69,6.69,18.89,6.52,11.2-.17,19.89-9.86,20.39-10.87,.5-1-9.03,7.02-20.23,7.35-11.03,0-17.05-2.67-19.06-3.01Z"/>
    </g>
  </g>
  <ellipse class="cls-4" cx="363.55" cy="164.95" rx="360.2" ry="161.6"/>
</svg>