<?xml version="1.0" encoding="UTF-8"?>
<svg id="Layer_1" data-name="Layer 1" xmlns="http://www.w3.org/2000/svg" viewBox="0 0 688.18 329.72">
  <defs>
    <style>
      .cls-1, .cls-2, .cls-3, .cls-4 {
        fill: none;
      }

      .cls-5 {
        font-size: 248.99px;
      }

      .cls-5, .cls-6, .cls-7, .cls-8 {
        font-family: ArialRoundedMTBold, 'Arial Rounded MT Bold';
        isolation: isolate;
      }

      .cls-9 {
        fill: #f47a3d;
      }

      .cls-10 {
        fill: #f7c73c;
      }

      .cls-11 {
        fill: #ee1f4d;
      }

      .cls-12 {
        fill: #f5ec4b;
      }

      .cls-13 {
        fill: #6858a6;
      }

      .cls-14 {
        fill: #b7b6b6;
      }

      .cls-15 {
        fill: #9d90c5;
      }

      .cls-16 {
        fill: #42c4f2;
      }

      .cls-17 {
        fill: #78c143;
      }

      .cls-6 {
        font-size: 187.21px;
      }

      .cls-7 {
        font-size: 200.32px;
      }

      .cls-2 {
        stroke: #aeadad;
      }

      .cls-2, .cls-3 {
        stroke-width: 1.67px;
      }

      .cls-2, .cls-3, .cls-4 {
        stroke-miterlimit: 10;
      }

      .cls-3 {
        stroke: #000;
      }

      .cls-8 {
        font-size: 190.96px;
      }

      .cls-4 {
        stroke: #fff;
        stroke-width: 6.52px;
      }
    </style>
  </defs>
  <g>
    <g>
      <circle class="cls-17" cx="99.07" cy="97.44" r="8.5"/>
      <circle class="cls-16" cx="117.43" cy="98.16" r="8.5"/>
      <circle class="cls-11" cx="172.33" cy="141.76" r="8.5"/>
      <circle class="cls-15" cx="36.23" cy="154.96" r="8.5"/>
      <circle class="cls-10" cx="51.43" cy="122.06" r="8.5"/>
      <circle class="cls-16" cx="36.53" cy="173.16" r="8.5"/>
      <circle class="cls-12" cx="40.53" cy="137.06" r="8.5"/>
      <circle class="cls-17" cx="42.23" cy="190.26" r="8.5"/>
      <circle class="cls-13" cx="81.03" cy="100.36" r="8.5"/>
      <circle class="cls-10" cx="163.43" cy="125.86" r="8.5"/>
      <circle class="cls-12" cx="150.23" cy="113.06" r="8.5"/>
      <circle class="cls-15" cx="135.03" cy="103.16" r="8.5"/>
      <circle class="cls-11" cx="64.83" cy="109.06" r="8.5"/>
      <circle class="cls-13" cx="53.33" cy="204.76" r="8.5"/>
      <circle class="cls-16" cx="152.73" cy="208.46" r="8.5"/>
      <circle class="cls-17" cx="164.73" cy="194.96" r="8.5"/>
      <circle class="cls-11" cx="84.03" cy="223.36" r="8.5"/>
      <circle class="cls-15" cx="137.23" cy="218.46" r="8.5"/>
      <circle class="cls-9" cx="67.63" cy="215.96" r="8.5"/>
      <circle class="cls-12" cx="119.93" cy="224.16" r="8.5"/>
      <circle class="cls-10" cx="101.93" cy="226.56" r="8.5"/>
      <circle class="cls-13" cx="172.63" cy="178.26" r="8.5"/>
      <circle class="cls-9" cx="174.83" cy="159.86" r="8.5"/>
    </g>
    <rect class="cls-1" x="183.63" y="93.46" width="98.1" height="147.6"/>
    <text class="cls-5" transform="translate(183.67 229.69) scale(.88 1)"><tspan x="0" y="0">r</tspan></text>
    <rect class="cls-1" x="401.83" y="94.86" width="96.9" height="149.3"/>
    <text class="cls-6" transform="translate(401.78 231.1)"><tspan x="0" y="0">i</tspan></text>
    <rect class="cls-1" x="283.93" y="94.66" width="125.7" height="150.8"/>
    <text class="cls-8" transform="translate(283.97 230.89) scale(1.02 1)"><tspan x="0" y="0">b</tspan></text>
    <line class="cls-3" x1="213.73" y1="154.36" x2="213.73" y2="153.86"/>
    <path class="cls-14" d="M273.73,108.86c1,.2-7.7-6.9-18.9-6.9s-20.1,9.5-20.6,10.4,9-6.9,20.2-6.9,17.3,3.1,19.3,3.4Z"/>
    <path class="cls-2" d="M417.03,108.66c0-6,4.5-11,10.5-11s10.9,4.8,10.9,10.9"/>
    <g>
      <rect class="cls-1" x="544.73" y="96.36" width="122.5" height="157.5"/>
      <text class="cls-6" transform="translate(544.7 232.58)"><tspan x="0" y="0">z</tspan></text>
      <ellipse class="cls-14" cx="590.53" cy="139.26" rx="34.4" ry="1.3"/>
      <ellipse class="cls-14" cx="610.43" cy="231.16" rx="22.4" ry=".7"/>
    </g>
    <path class="cls-14" d="M370.83,140.16c1,.2-7.7-6.9-18.9-6.9s-20.1,9.5-20.6,10.4c-.5,.8,9-6.9,20.2-6.9s17.3,3,19.3,3.4Z"/>
    <g>
      <rect class="cls-1" x="457.43" y="93.46" width="122.5" height="150.8"/>
      <text class="cls-7" transform="translate(457.39 229.69) scale(.93 1)"><tspan x="0" y="0">t</tspan></text>
      <path class="cls-2" d="M476.73,100.86c0-6,4.5-11,10.5-11s10.9,4.8,10.9,10.9"/>
      <path class="cls-14" d="M486.33,225.86c-1-.2,7.7,6.7,18.9,6.5s19.9-9.9,20.4-10.9-9,7-20.2,7.4c-11,0-17-2.7-19.1-3Z"/>
    </g>
  </g>
  <ellipse class="cls-4" cx="344.09" cy="164.86" rx="340.83" ry="161.6"/>
</svg>